<svg width="100" height="100" viewBox="0 0 100 100" fill="none" xmlns="http://www.w3.org/2000/svg">
<path d="M49.6507 1.1397C49.4301 2.27941 48.7684 5.40441 45.4044 21.5073C44.4853 25.9007 43.5294 30.5331 43.2721 31.8015C42.9963 33.0698 42.7206 34.4118 42.6287 34.7794L42.4449 35.4596L39.8346 33.75C38.4007 32.8125 34.7794 30.4412 31.8015 28.4926C25.9926 24.6875 23.0331 22.7573 22.6471 22.5368C22.2794 22.3162 22.1507 22.0956 29.0993 32.7206C34.2279 40.5331 35.3676 42.3897 35.1287 42.5C34.9632 42.5735 33.8419 42.8309 32.6287 43.0882C31.4154 43.3456 27.6103 44.136 24.1728 44.8529C20.7353 45.5699 15.2022 46.7279 11.8566 47.4265C8.52941 48.125 4.48529 48.9706 2.90441 49.3015C1.30515 49.6324 0 49.9449 0 50C0 50.0551 2.29779 50.5699 5.11029 51.1581C7.90441 51.7463 12.9412 52.7941 16.2684 53.4926C19.614 54.1912 25.1838 55.3493 28.6765 56.0662C36.0662 57.6103 35.5699 57.4816 35.3309 57.7757C35.1654 57.9963 22.8493 76.8382 22.5184 77.3897C22.3713 77.6287 22.4265 77.6103 22.7941 77.3713C26.8934 74.7059 34.6875 69.614 38.0515 67.4081C41.5809 65.0919 42.3897 64.6324 42.5 64.8713C42.5735 65.0368 43.0699 67.1875 43.5662 69.6691C44.0809 72.1507 44.9081 76.1213 45.4044 78.4926C48.0331 91.0294 49.6324 98.6949 49.7426 99.3015C49.7978 99.6875 49.9081 100 49.9816 100C50.0368 100 50.5882 97.6654 51.1765 94.7978C51.7831 91.9485 52.6103 87.9228 53.0515 85.8456C53.4926 83.7684 54.6324 78.2721 55.5882 73.6213C56.5625 68.9706 57.4081 65.0368 57.5 64.8713C57.6103 64.614 58.2169 64.9632 61.0294 66.8015C62.9044 68.0147 67.2059 70.8456 70.5882 73.0515C73.9706 75.2574 76.9485 77.2059 77.2059 77.3713C77.7574 77.739 78.2721 78.5662 72.6287 69.9449C70.0552 65.9926 67.1875 61.5993 66.25 60.1654L64.5404 57.5551L65.2206 57.3713C65.5882 57.2794 68.75 56.6176 72.2427 55.9007C75.7353 55.1654 81.3235 54.0074 84.6507 53.3088C87.9963 52.6103 92.8125 51.5993 95.3677 51.0662C97.9044 50.5331 100 50.0551 100 50C100 49.9265 98.125 49.4853 95.8272 49.0074C93.511 48.5294 88.8787 47.5735 85.5331 46.875C77.5919 45.2022 67.2794 43.0515 65.9927 42.7941C65.4412 42.6838 64.8897 42.5368 64.7794 42.4816C64.6507 42.4081 67.0588 38.5846 70.9007 32.7206C78.1066 21.7096 77.7206 22.3346 77.261 22.5919C77.0772 22.6838 72.5919 25.625 67.2794 29.0993C59.4301 34.2463 57.6103 35.3676 57.5 35.1287C57.4265 34.9632 56.9853 33.0515 56.5441 30.8823C55.4779 25.7537 52.4816 11.3971 51.1397 4.99999C50.5699 2.26102 50.0368 -7.62939e-06 49.9816 -7.62939e-06C49.9081 -7.62939e-06 49.761 0.514702 49.6507 1.1397ZM50 27.3346V49.9081L46.0662 45.9559L42.114 42.0037L43.4743 35.5698C44.2096 32.0221 45.4412 26.1213 46.2316 22.4265C47.0037 18.7316 48.1434 13.2537 48.7684 10.239C49.375 7.24265 49.9081 4.77941 49.9449 4.77941C49.9816 4.77941 50 14.9265 50 27.3346ZM41.1765 41.1949C41.1765 41.3787 36.3419 42.2978 36.1949 42.1324C35.9191 41.8382 25.1838 25.3309 25.1838 25.2206C25.1838 25.1471 28.7868 28.6948 33.1801 33.0882C37.5735 37.4816 41.1765 41.1397 41.1765 41.1949ZM66.9118 33.1801C62.5184 37.5735 58.8603 41.1765 58.8051 41.1765C58.6581 41.1765 57.6838 36.3603 57.8125 36.25C58.0515 35.9926 74.5772 25.2206 74.7243 25.2022C74.8162 25.1838 71.3052 28.7868 66.9118 33.1801ZM63.6397 43.3088C72.3346 45.1287 77.2978 46.1581 85.5699 47.886C89.7243 48.75 93.6029 49.5588 94.2096 49.7059C95.1654 49.9265 92.3346 49.9632 72.7022 49.9816L50.0919 50L53.989 53.8971L57.9044 57.8125L53.989 76.5074L50.0919 95.1838L50.0368 72.6471L50 50.0919L46.0846 53.989L42.1875 57.9044L31.25 55.6066C25.239 54.3566 17.6654 52.7757 14.4301 52.0956C11.1949 51.4154 7.68382 50.6801 6.61765 50.4596L4.6875 50.0368L27.2978 50.0184L49.9081 50L53.8603 46.0478C56.0294 43.8787 57.8309 42.0956 57.8493 42.0956C57.886 42.0956 60.4779 42.6287 63.6397 43.3088ZM69.3015 66.25C72.3346 70.8824 74.7978 74.7059 74.761 74.7426C74.7427 74.7794 71.1213 71.2132 66.7279 66.8199C62.3346 62.4265 58.7868 58.8051 58.8235 58.7684C58.9706 58.6397 63.3088 57.739 63.5478 57.7757C63.6765 57.7941 66.2684 61.5993 69.3015 66.25ZM41.7096 60.8824C41.9301 62.0221 42.1691 63.1434 42.2059 63.3456C42.2978 63.6581 42.0956 63.8787 41.1397 64.4669C40.4963 64.8897 36.6912 67.3713 32.6654 70.0184C28.6397 72.6471 25.2941 74.8162 25.2206 74.8162C25.1471 74.8162 28.6949 71.2132 33.0882 66.8199C37.4816 62.4265 41.1397 58.8235 41.1949 58.8235C41.25 58.8235 41.489 59.761 41.7096 60.8824Z" fill="#191970"/>
</svg>
